<mxfile host="app.diagrams.net" agent="Mozilla/5.0 (Windows NT 10.0; Win64; x64) AppleWebKit/537.36 (KHTML, like Gecko) Chrome/138.0.0.0 Safari/537.36 Edg/138.0.0.0" version="28.0.4">
  <diagram name="Page-1" id="Vs1uTUXTusfFtKuUJXLR">
    <mxGraphModel dx="1315" dy="508" grid="1" gridSize="10" guides="1" tooltips="1" connect="1" arrows="1" fold="1" page="0" pageScale="2" pageWidth="2336" pageHeight="1654" math="0" shadow="0">
      <root>
        <mxCell id="0" />
        <mxCell id="1" parent="0" />
        <mxCell id="Mz9z7q-OG1JkgQbm7pyb-9" value="enum Colour" style="swimlane;fontStyle=0;childLayout=stackLayout;horizontal=1;startSize=30;horizontalStack=0;resizeParent=1;resizeParentMax=0;resizeLast=0;collapsible=1;marginBottom=0;whiteSpace=wrap;html=1;" parent="1" vertex="1">
          <mxGeometry x="1315" y="1680" width="140" height="80" as="geometry" />
        </mxCell>
        <mxCell id="Mz9z7q-OG1JkgQbm7pyb-10" value="{Black, White, None}" style="text;strokeColor=none;fillColor=none;align=left;verticalAlign=middle;spacingLeft=4;spacingRight=4;overflow=hidden;points=[[0,0.5],[1,0.5]];portConstraint=eastwest;rotatable=0;whiteSpace=wrap;html=1;" parent="Mz9z7q-OG1JkgQbm7pyb-9" vertex="1">
          <mxGeometry y="30" width="140" height="50" as="geometry" />
        </mxCell>
        <mxCell id="Mz9z7q-OG1JkgQbm7pyb-71" value="Board" style="swimlane;fontStyle=0;childLayout=stackLayout;horizontal=1;startSize=30;horizontalStack=0;resizeParent=1;resizeParentMax=0;resizeLast=0;collapsible=1;marginBottom=0;whiteSpace=wrap;html=1;" parent="1" vertex="1">
          <mxGeometry x="800" y="920" width="270" height="540" as="geometry" />
        </mxCell>
        <mxCell id="Mz9z7q-OG1JkgQbm7pyb-72" value="-Piece[8][8] *Pieces" style="text;strokeColor=none;fillColor=none;align=left;verticalAlign=middle;spacingLeft=4;spacingRight=4;overflow=hidden;points=[[0,0.5],[1,0.5]];portConstraint=eastwest;rotatable=0;whiteSpace=wrap;html=1;" parent="Mz9z7q-OG1JkgQbm7pyb-71" vertex="1">
          <mxGeometry y="30" width="270" height="30" as="geometry" />
        </mxCell>
        <mxCell id="Mz9z7q-OG1JkgQbm7pyb-86" value="-Colour Turn;" style="text;strokeColor=none;fillColor=none;align=left;verticalAlign=middle;spacingLeft=4;spacingRight=4;overflow=hidden;points=[[0,0.5],[1,0.5]];portConstraint=eastwest;rotatable=0;whiteSpace=wrap;html=1;" parent="Mz9z7q-OG1JkgQbm7pyb-71" vertex="1">
          <mxGeometry y="60" width="270" height="30" as="geometry" />
        </mxCell>
        <mxCell id="Mz9z7q-OG1JkgQbm7pyb-73" value="-Invisible_Board_Info *Info" style="text;strokeColor=none;fillColor=none;align=left;verticalAlign=middle;spacingLeft=4;spacingRight=4;overflow=hidden;points=[[0,0.5],[1,0.5]];portConstraint=eastwest;rotatable=0;whiteSpace=wrap;html=1;" parent="Mz9z7q-OG1JkgQbm7pyb-71" vertex="1">
          <mxGeometry y="90" width="270" height="30" as="geometry" />
        </mxCell>
        <mxCell id="Mz9z7q-OG1JkgQbm7pyb-74" value="-Bool check" style="text;strokeColor=none;fillColor=none;align=left;verticalAlign=middle;spacingLeft=4;spacingRight=4;overflow=hidden;points=[[0,0.5],[1,0.5]];portConstraint=eastwest;rotatable=0;whiteSpace=wrap;html=1;" parent="Mz9z7q-OG1JkgQbm7pyb-71" vertex="1">
          <mxGeometry y="120" width="270" height="30" as="geometry" />
        </mxCell>
        <mxCell id="zQiTS09YiXoC2l2YVAX9-1" value="-BoardObserver** Observers" style="text;strokeColor=none;fillColor=none;align=left;verticalAlign=middle;spacingLeft=4;spacingRight=4;overflow=hidden;points=[[0,0.5],[1,0.5]];portConstraint=eastwest;rotatable=0;whiteSpace=wrap;html=1;" vertex="1" parent="Mz9z7q-OG1JkgQbm7pyb-71">
          <mxGeometry y="150" width="270" height="30" as="geometry" />
        </mxCell>
        <mxCell id="zQiTS09YiXoC2l2YVAX9-39" value="-GameData *Data //for repetition checks" style="text;strokeColor=none;fillColor=none;align=left;verticalAlign=middle;spacingLeft=4;spacingRight=4;overflow=hidden;points=[[0,0.5],[1,0.5]];portConstraint=eastwest;rotatable=0;whiteSpace=wrap;html=1;" vertex="1" parent="Mz9z7q-OG1JkgQbm7pyb-71">
          <mxGeometry y="180" width="270" height="30" as="geometry" />
        </mxCell>
        <mxCell id="Mz9z7q-OG1JkgQbm7pyb-81" value="-Bool UpdateCheckAndMate()" style="text;strokeColor=none;fillColor=none;align=left;verticalAlign=middle;spacingLeft=4;spacingRight=4;overflow=hidden;points=[[0,0.5],[1,0.5]];portConstraint=eastwest;rotatable=0;whiteSpace=wrap;html=1;" parent="Mz9z7q-OG1JkgQbm7pyb-71" vertex="1">
          <mxGeometry y="210" width="270" height="30" as="geometry" />
        </mxCell>
        <mxCell id="zQiTS09YiXoC2l2YVAX9-50" value="+Board()" style="text;strokeColor=none;fillColor=none;align=left;verticalAlign=middle;spacingLeft=4;spacingRight=4;overflow=hidden;points=[[0,0.5],[1,0.5]];portConstraint=eastwest;rotatable=0;whiteSpace=wrap;html=1;" vertex="1" parent="Mz9z7q-OG1JkgQbm7pyb-71">
          <mxGeometry y="240" width="270" height="30" as="geometry" />
        </mxCell>
        <mxCell id="zQiTS09YiXoC2l2YVAX9-119" value="+const Piece* operator[](int) const" style="text;strokeColor=none;fillColor=none;align=left;verticalAlign=middle;spacingLeft=4;spacingRight=4;overflow=hidden;points=[[0,0.5],[1,0.5]];portConstraint=eastwest;rotatable=0;whiteSpace=wrap;html=1;" vertex="1" parent="Mz9z7q-OG1JkgQbm7pyb-71">
          <mxGeometry y="270" width="270" height="30" as="geometry" />
        </mxCell>
        <mxCell id="zQiTS09YiXoC2l2YVAX9-54" value="+NotifyAll()" style="text;strokeColor=none;fillColor=none;align=left;verticalAlign=middle;spacingLeft=4;spacingRight=4;overflow=hidden;points=[[0,0.5],[1,0.5]];portConstraint=eastwest;rotatable=0;whiteSpace=wrap;html=1;" vertex="1" parent="Mz9z7q-OG1JkgQbm7pyb-71">
          <mxGeometry y="300" width="270" height="30" as="geometry" />
        </mxCell>
        <mxCell id="Mz9z7q-OG1JkgQbm7pyb-79" value="+const Bool check(), checkmate()" style="text;strokeColor=none;fillColor=none;align=left;verticalAlign=middle;spacingLeft=4;spacingRight=4;overflow=hidden;points=[[0,0.5],[1,0.5]];portConstraint=eastwest;rotatable=0;whiteSpace=wrap;html=1;" parent="Mz9z7q-OG1JkgQbm7pyb-71" vertex="1">
          <mxGeometry y="330" width="270" height="30" as="geometry" />
        </mxCell>
        <mxCell id="zQiTS09YiXoC2l2YVAX9-110" value="+const Colour Turn()" style="text;strokeColor=none;fillColor=none;align=left;verticalAlign=middle;spacingLeft=4;spacingRight=4;overflow=hidden;points=[[0,0.5],[1,0.5]];portConstraint=eastwest;rotatable=0;whiteSpace=wrap;html=1;" vertex="1" parent="Mz9z7q-OG1JkgQbm7pyb-71">
          <mxGeometry y="360" width="270" height="30" as="geometry" />
        </mxCell>
        <mxCell id="Mz9z7q-OG1JkgQbm7pyb-94" value="+const Invisible_Board_Info()" style="text;strokeColor=none;fillColor=none;align=left;verticalAlign=middle;spacingLeft=4;spacingRight=4;overflow=hidden;points=[[0,0.5],[1,0.5]];portConstraint=eastwest;rotatable=0;whiteSpace=wrap;html=1;" parent="Mz9z7q-OG1JkgQbm7pyb-71" vertex="1">
          <mxGeometry y="390" width="270" height="30" as="geometry" />
        </mxCell>
        <mxCell id="Mz9z7q-OG1JkgQbm7pyb-106" value="+PieceType PieceAtSquare(Position)" style="text;strokeColor=none;fillColor=none;align=left;verticalAlign=middle;spacingLeft=4;spacingRight=4;overflow=hidden;points=[[0,0.5],[1,0.5]];portConstraint=eastwest;rotatable=0;whiteSpace=wrap;html=1;" parent="Mz9z7q-OG1JkgQbm7pyb-71" vertex="1">
          <mxGeometry y="420" width="270" height="30" as="geometry" />
        </mxCell>
        <mxCell id="Mz9z7q-OG1JkgQbm7pyb-83" value="+Vector&amp;lt;Move_Info&amp;gt; allValidMoves()" style="text;strokeColor=none;fillColor=none;align=left;verticalAlign=middle;spacingLeft=4;spacingRight=4;overflow=hidden;points=[[0,0.5],[1,0.5]];portConstraint=eastwest;rotatable=0;whiteSpace=wrap;html=1;" parent="Mz9z7q-OG1JkgQbm7pyb-71" vertex="1">
          <mxGeometry y="450" width="270" height="30" as="geometry" />
        </mxCell>
        <mxCell id="Mz9z7q-OG1JkgQbm7pyb-84" value="+Position *validMoves(Position)" style="text;strokeColor=none;fillColor=none;align=left;verticalAlign=middle;spacingLeft=4;spacingRight=4;overflow=hidden;points=[[0,0.5],[1,0.5]];portConstraint=eastwest;rotatable=0;whiteSpace=wrap;html=1;" parent="Mz9z7q-OG1JkgQbm7pyb-71" vertex="1">
          <mxGeometry y="480" width="270" height="30" as="geometry" />
        </mxCell>
        <mxCell id="Mz9z7q-OG1JkgQbm7pyb-98" value="+Void Move(Position, const Piece, PieceType P = Pawn)" style="text;strokeColor=none;fillColor=none;align=left;verticalAlign=middle;spacingLeft=4;spacingRight=4;overflow=hidden;points=[[0,0.5],[1,0.5]];portConstraint=eastwest;rotatable=0;whiteSpace=wrap;html=1;" parent="Mz9z7q-OG1JkgQbm7pyb-71" vertex="1">
          <mxGeometry y="510" width="270" height="30" as="geometry" />
        </mxCell>
        <mxCell id="Mz9z7q-OG1JkgQbm7pyb-78" value="" style="edgeStyle=elbowEdgeStyle;elbow=horizontal;endArrow=classic;html=1;curved=0;rounded=0;endSize=8;startSize=8;exitX=0;exitY=0.25;exitDx=0;exitDy=0;entryX=1;entryY=0.5;entryDx=0;entryDy=0;" parent="1" source="Mz9z7q-OG1JkgQbm7pyb-9" target="Mz9z7q-OG1JkgQbm7pyb-4" edge="1">
          <mxGeometry width="50" height="50" relative="1" as="geometry">
            <mxPoint x="1140" y="1560" as="sourcePoint" />
            <mxPoint x="1280" y="1520" as="targetPoint" />
            <Array as="points">
              <mxPoint x="1190" y="1690" />
            </Array>
          </mxGeometry>
        </mxCell>
        <mxCell id="Mz9z7q-OG1JkgQbm7pyb-87" value="" style="edgeStyle=elbowEdgeStyle;elbow=horizontal;endArrow=classic;html=1;curved=0;rounded=0;endSize=8;startSize=8;exitX=0;exitY=0.25;exitDx=0;exitDy=0;entryX=1;entryY=0.5;entryDx=0;entryDy=0;" parent="1" target="Mz9z7q-OG1JkgQbm7pyb-86" edge="1" source="Mz9z7q-OG1JkgQbm7pyb-9">
          <mxGeometry width="50" height="50" relative="1" as="geometry">
            <mxPoint x="1300" y="1530" as="sourcePoint" />
            <mxPoint x="1120" y="1220" as="targetPoint" />
          </mxGeometry>
        </mxCell>
        <mxCell id="Mz9z7q-OG1JkgQbm7pyb-93" value="" style="group" parent="1" vertex="1" connectable="0">
          <mxGeometry x="1110" y="1120" width="50" height="510" as="geometry" />
        </mxCell>
        <mxCell id="Mz9z7q-OG1JkgQbm7pyb-1" value="Abstract Piece" style="swimlane;fontStyle=0;childLayout=stackLayout;horizontal=1;startSize=30;horizontalStack=0;resizeParent=1;resizeParentMax=0;resizeLast=0;collapsible=1;marginBottom=0;whiteSpace=wrap;html=1;" parent="1" vertex="1">
          <mxGeometry x="840" y="1590" width="270" height="300" as="geometry">
            <mxRectangle x="210" y="120" width="120" height="30" as="alternateBounds" />
          </mxGeometry>
        </mxCell>
        <mxCell id="Mz9z7q-OG1JkgQbm7pyb-2" value="#Position Pos" style="text;strokeColor=none;fillColor=none;align=left;verticalAlign=middle;spacingLeft=4;spacingRight=4;overflow=hidden;points=[[0,0.5],[1,0.5]];portConstraint=eastwest;rotatable=0;whiteSpace=wrap;html=1;" parent="Mz9z7q-OG1JkgQbm7pyb-1" vertex="1">
          <mxGeometry y="30" width="270" height="30" as="geometry" />
        </mxCell>
        <mxCell id="Mz9z7q-OG1JkgQbm7pyb-4" value="#Colour c" style="text;strokeColor=none;fillColor=none;align=left;verticalAlign=middle;spacingLeft=4;spacingRight=4;overflow=hidden;points=[[0,0.5],[1,0.5]];portConstraint=eastwest;rotatable=0;whiteSpace=wrap;html=1;" parent="Mz9z7q-OG1JkgQbm7pyb-1" vertex="1">
          <mxGeometry y="60" width="270" height="30" as="geometry" />
        </mxCell>
        <mxCell id="Mz9z7q-OG1JkgQbm7pyb-14" value="#Const Board *B" style="text;strokeColor=none;fillColor=none;align=left;verticalAlign=middle;spacingLeft=4;spacingRight=4;overflow=hidden;points=[[0,0.5],[1,0.5]];portConstraint=eastwest;rotatable=0;whiteSpace=wrap;html=1;" parent="Mz9z7q-OG1JkgQbm7pyb-1" vertex="1">
          <mxGeometry y="90" width="270" height="30" as="geometry" />
        </mxCell>
        <mxCell id="Mz9z7q-OG1JkgQbm7pyb-15" value="+virtual Position* ValidMoves()" style="text;strokeColor=none;fillColor=none;align=left;verticalAlign=middle;spacingLeft=4;spacingRight=4;overflow=hidden;points=[[0,0.5],[1,0.5]];portConstraint=eastwest;rotatable=0;whiteSpace=wrap;html=1;" parent="Mz9z7q-OG1JkgQbm7pyb-1" vertex="1">
          <mxGeometry y="120" width="270" height="30" as="geometry" />
        </mxCell>
        <mxCell id="Mz9z7q-OG1JkgQbm7pyb-31" value="+virtual Bool verifyMove (Position)" style="text;strokeColor=none;fillColor=none;align=left;verticalAlign=middle;spacingLeft=4;spacingRight=4;overflow=hidden;points=[[0,0.5],[1,0.5]];portConstraint=eastwest;rotatable=0;whiteSpace=wrap;html=1;" parent="Mz9z7q-OG1JkgQbm7pyb-1" vertex="1">
          <mxGeometry y="150" width="270" height="30" as="geometry" />
        </mxCell>
        <mxCell id="Mz9z7q-OG1JkgQbm7pyb-16" value="+virtual PieceType Type()" style="text;strokeColor=none;fillColor=none;align=left;verticalAlign=middle;spacingLeft=4;spacingRight=4;overflow=hidden;points=[[0,0.5],[1,0.5]];portConstraint=eastwest;rotatable=0;whiteSpace=wrap;html=1;" parent="Mz9z7q-OG1JkgQbm7pyb-1" vertex="1">
          <mxGeometry y="180" width="270" height="30" as="geometry" />
        </mxCell>
        <mxCell id="Mz9z7q-OG1JkgQbm7pyb-17" value="+Position Position()" style="text;strokeColor=none;fillColor=none;align=left;verticalAlign=middle;spacingLeft=4;spacingRight=4;overflow=hidden;points=[[0,0.5],[1,0.5]];portConstraint=eastwest;rotatable=0;whiteSpace=wrap;html=1;" parent="Mz9z7q-OG1JkgQbm7pyb-1" vertex="1">
          <mxGeometry y="210" width="270" height="30" as="geometry" />
        </mxCell>
        <mxCell id="Mz9z7q-OG1JkgQbm7pyb-100" value="+Colour PieceColour()" style="text;strokeColor=none;fillColor=none;align=left;verticalAlign=middle;spacingLeft=4;spacingRight=4;overflow=hidden;points=[[0,0.5],[1,0.5]];portConstraint=eastwest;rotatable=0;whiteSpace=wrap;html=1;" parent="Mz9z7q-OG1JkgQbm7pyb-1" vertex="1">
          <mxGeometry y="240" width="270" height="30" as="geometry" />
        </mxCell>
        <mxCell id="Mz9z7q-OG1JkgQbm7pyb-18" value="+Bool Move(Position, PieceType P = Pawn)" style="text;strokeColor=none;fillColor=none;align=left;verticalAlign=middle;spacingLeft=4;spacingRight=4;overflow=hidden;points=[[0,0.5],[1,0.5]];portConstraint=eastwest;rotatable=0;whiteSpace=wrap;html=1;" parent="Mz9z7q-OG1JkgQbm7pyb-1" vertex="1">
          <mxGeometry y="270" width="270" height="30" as="geometry" />
        </mxCell>
        <mxCell id="Mz9z7q-OG1JkgQbm7pyb-19" value="Rook" style="swimlane;fontStyle=0;childLayout=stackLayout;horizontal=1;startSize=30;horizontalStack=0;resizeParent=1;resizeParentMax=0;resizeLast=0;collapsible=1;marginBottom=0;whiteSpace=wrap;html=1;" parent="1" vertex="1">
          <mxGeometry x="140" y="2000" width="240" height="150" as="geometry">
            <mxRectangle x="120" y="490" width="120" height="30" as="alternateBounds" />
          </mxGeometry>
        </mxCell>
        <mxCell id="Mz9z7q-OG1JkgQbm7pyb-24" value="+Position* ValidMoves()" style="text;strokeColor=none;fillColor=none;align=left;verticalAlign=middle;spacingLeft=4;spacingRight=4;overflow=hidden;points=[[0,0.5],[1,0.5]];portConstraint=eastwest;rotatable=0;whiteSpace=wrap;html=1;" parent="Mz9z7q-OG1JkgQbm7pyb-19" vertex="1">
          <mxGeometry y="30" width="240" height="30" as="geometry" />
        </mxCell>
        <mxCell id="Mz9z7q-OG1JkgQbm7pyb-25" value="+Bool verifyMove (Position)" style="text;strokeColor=none;fillColor=none;align=left;verticalAlign=middle;spacingLeft=4;spacingRight=4;overflow=hidden;points=[[0,0.5],[1,0.5]];portConstraint=eastwest;rotatable=0;whiteSpace=wrap;html=1;" parent="Mz9z7q-OG1JkgQbm7pyb-19" vertex="1">
          <mxGeometry y="60" width="240" height="30" as="geometry" />
        </mxCell>
        <mxCell id="Mz9z7q-OG1JkgQbm7pyb-38" value="+PieceType Type() {Return Rook}" style="text;strokeColor=none;fillColor=none;align=left;verticalAlign=middle;spacingLeft=4;spacingRight=4;overflow=hidden;points=[[0,0.5],[1,0.5]];portConstraint=eastwest;rotatable=0;whiteSpace=wrap;html=1;" parent="Mz9z7q-OG1JkgQbm7pyb-19" vertex="1">
          <mxGeometry y="90" width="240" height="30" as="geometry" />
        </mxCell>
        <mxCell id="Mz9z7q-OG1JkgQbm7pyb-33" value="+Rook(Position, Colour)" style="text;strokeColor=none;fillColor=none;align=left;verticalAlign=middle;spacingLeft=4;spacingRight=4;overflow=hidden;points=[[0,0.5],[1,0.5]];portConstraint=eastwest;rotatable=0;whiteSpace=wrap;html=1;" parent="Mz9z7q-OG1JkgQbm7pyb-19" vertex="1">
          <mxGeometry y="120" width="240" height="30" as="geometry" />
        </mxCell>
        <mxCell id="Mz9z7q-OG1JkgQbm7pyb-30" value="" style="edgeStyle=elbowEdgeStyle;elbow=vertical;endArrow=block;html=1;curved=0;rounded=0;endSize=8;startSize=8;exitX=0.5;exitY=0;exitDx=0;exitDy=0;endFill=0;" parent="1" source="Mz9z7q-OG1JkgQbm7pyb-19" target="Mz9z7q-OG1JkgQbm7pyb-18" edge="1">
          <mxGeometry width="50" height="50" relative="1" as="geometry">
            <mxPoint x="720" y="2000" as="sourcePoint" />
            <mxPoint x="980" y="1860" as="targetPoint" />
          </mxGeometry>
        </mxCell>
        <mxCell id="Mz9z7q-OG1JkgQbm7pyb-39" value="Knight" style="swimlane;fontStyle=0;childLayout=stackLayout;horizontal=1;startSize=30;horizontalStack=0;resizeParent=1;resizeParentMax=0;resizeLast=0;collapsible=1;marginBottom=0;whiteSpace=wrap;html=1;" parent="1" vertex="1">
          <mxGeometry x="420" y="2000" width="240" height="150" as="geometry">
            <mxRectangle x="400" y="490" width="120" height="30" as="alternateBounds" />
          </mxGeometry>
        </mxCell>
        <mxCell id="Mz9z7q-OG1JkgQbm7pyb-40" value="+Position* ValidMoves()" style="text;strokeColor=none;fillColor=none;align=left;verticalAlign=middle;spacingLeft=4;spacingRight=4;overflow=hidden;points=[[0,0.5],[1,0.5]];portConstraint=eastwest;rotatable=0;whiteSpace=wrap;html=1;" parent="Mz9z7q-OG1JkgQbm7pyb-39" vertex="1">
          <mxGeometry y="30" width="240" height="30" as="geometry" />
        </mxCell>
        <mxCell id="Mz9z7q-OG1JkgQbm7pyb-41" value="+Bool verifyMove (Position)" style="text;strokeColor=none;fillColor=none;align=left;verticalAlign=middle;spacingLeft=4;spacingRight=4;overflow=hidden;points=[[0,0.5],[1,0.5]];portConstraint=eastwest;rotatable=0;whiteSpace=wrap;html=1;" parent="Mz9z7q-OG1JkgQbm7pyb-39" vertex="1">
          <mxGeometry y="60" width="240" height="30" as="geometry" />
        </mxCell>
        <mxCell id="Mz9z7q-OG1JkgQbm7pyb-42" value="+PieceType Type() {Return Knight}" style="text;strokeColor=none;fillColor=none;align=left;verticalAlign=middle;spacingLeft=4;spacingRight=4;overflow=hidden;points=[[0,0.5],[1,0.5]];portConstraint=eastwest;rotatable=0;whiteSpace=wrap;html=1;" parent="Mz9z7q-OG1JkgQbm7pyb-39" vertex="1">
          <mxGeometry y="90" width="240" height="30" as="geometry" />
        </mxCell>
        <mxCell id="Mz9z7q-OG1JkgQbm7pyb-43" value="+Knight(Position, Colour)" style="text;strokeColor=none;fillColor=none;align=left;verticalAlign=middle;spacingLeft=4;spacingRight=4;overflow=hidden;points=[[0,0.5],[1,0.5]];portConstraint=eastwest;rotatable=0;whiteSpace=wrap;html=1;" parent="Mz9z7q-OG1JkgQbm7pyb-39" vertex="1">
          <mxGeometry y="120" width="240" height="30" as="geometry" />
        </mxCell>
        <mxCell id="Mz9z7q-OG1JkgQbm7pyb-44" value="" style="edgeStyle=elbowEdgeStyle;elbow=vertical;endArrow=block;html=1;curved=0;rounded=0;endSize=8;startSize=8;endFill=0;" parent="1" source="Mz9z7q-OG1JkgQbm7pyb-39" target="Mz9z7q-OG1JkgQbm7pyb-18" edge="1">
          <mxGeometry width="50" height="50" relative="1" as="geometry">
            <mxPoint x="1020" y="2000" as="sourcePoint" />
            <mxPoint x="990" y="1860" as="targetPoint" />
          </mxGeometry>
        </mxCell>
        <mxCell id="Mz9z7q-OG1JkgQbm7pyb-47" value="Bishop" style="swimlane;fontStyle=0;childLayout=stackLayout;horizontal=1;startSize=30;horizontalStack=0;resizeParent=1;resizeParentMax=0;resizeLast=0;collapsible=1;marginBottom=0;whiteSpace=wrap;html=1;" parent="1" vertex="1">
          <mxGeometry x="700" y="2000" width="240" height="150" as="geometry">
            <mxRectangle x="680" y="490" width="120" height="30" as="alternateBounds" />
          </mxGeometry>
        </mxCell>
        <mxCell id="Mz9z7q-OG1JkgQbm7pyb-48" value="+Position* ValidMoves()" style="text;strokeColor=none;fillColor=none;align=left;verticalAlign=middle;spacingLeft=4;spacingRight=4;overflow=hidden;points=[[0,0.5],[1,0.5]];portConstraint=eastwest;rotatable=0;whiteSpace=wrap;html=1;" parent="Mz9z7q-OG1JkgQbm7pyb-47" vertex="1">
          <mxGeometry y="30" width="240" height="30" as="geometry" />
        </mxCell>
        <mxCell id="Mz9z7q-OG1JkgQbm7pyb-49" value="+Bool verifyMove (Position)" style="text;strokeColor=none;fillColor=none;align=left;verticalAlign=middle;spacingLeft=4;spacingRight=4;overflow=hidden;points=[[0,0.5],[1,0.5]];portConstraint=eastwest;rotatable=0;whiteSpace=wrap;html=1;" parent="Mz9z7q-OG1JkgQbm7pyb-47" vertex="1">
          <mxGeometry y="60" width="240" height="30" as="geometry" />
        </mxCell>
        <mxCell id="Mz9z7q-OG1JkgQbm7pyb-50" value="+PieceType Type() {Return Bishop}" style="text;strokeColor=none;fillColor=none;align=left;verticalAlign=middle;spacingLeft=4;spacingRight=4;overflow=hidden;points=[[0,0.5],[1,0.5]];portConstraint=eastwest;rotatable=0;whiteSpace=wrap;html=1;" parent="Mz9z7q-OG1JkgQbm7pyb-47" vertex="1">
          <mxGeometry y="90" width="240" height="30" as="geometry" />
        </mxCell>
        <mxCell id="Mz9z7q-OG1JkgQbm7pyb-51" value="+Bishop(Position, Colour)" style="text;strokeColor=none;fillColor=none;align=left;verticalAlign=middle;spacingLeft=4;spacingRight=4;overflow=hidden;points=[[0,0.5],[1,0.5]];portConstraint=eastwest;rotatable=0;whiteSpace=wrap;html=1;" parent="Mz9z7q-OG1JkgQbm7pyb-47" vertex="1">
          <mxGeometry y="120" width="240" height="30" as="geometry" />
        </mxCell>
        <mxCell id="Mz9z7q-OG1JkgQbm7pyb-52" value="" style="edgeStyle=elbowEdgeStyle;elbow=vertical;endArrow=block;html=1;rounded=0;endSize=8;startSize=8;endFill=0;exitX=0.5;exitY=0;exitDx=0;exitDy=0;" parent="1" source="Mz9z7q-OG1JkgQbm7pyb-47" target="Mz9z7q-OG1JkgQbm7pyb-18" edge="1">
          <mxGeometry width="50" height="50" relative="1" as="geometry">
            <mxPoint x="840" y="1980" as="sourcePoint" />
            <mxPoint x="980" y="1860" as="targetPoint" />
          </mxGeometry>
        </mxCell>
        <mxCell id="Mz9z7q-OG1JkgQbm7pyb-53" value="King" style="swimlane;fontStyle=0;childLayout=stackLayout;horizontal=1;startSize=30;horizontalStack=0;resizeParent=1;resizeParentMax=0;resizeLast=0;collapsible=1;marginBottom=0;whiteSpace=wrap;html=1;" parent="1" vertex="1">
          <mxGeometry x="1010" y="2000" width="240" height="150" as="geometry">
            <mxRectangle x="210" y="120" width="120" height="30" as="alternateBounds" />
          </mxGeometry>
        </mxCell>
        <mxCell id="Mz9z7q-OG1JkgQbm7pyb-54" value="+Position* ValidMoves()" style="text;strokeColor=none;fillColor=none;align=left;verticalAlign=middle;spacingLeft=4;spacingRight=4;overflow=hidden;points=[[0,0.5],[1,0.5]];portConstraint=eastwest;rotatable=0;whiteSpace=wrap;html=1;" parent="Mz9z7q-OG1JkgQbm7pyb-53" vertex="1">
          <mxGeometry y="30" width="240" height="30" as="geometry" />
        </mxCell>
        <mxCell id="Mz9z7q-OG1JkgQbm7pyb-55" value="+Bool verifyMove (Position)" style="text;strokeColor=none;fillColor=none;align=left;verticalAlign=middle;spacingLeft=4;spacingRight=4;overflow=hidden;points=[[0,0.5],[1,0.5]];portConstraint=eastwest;rotatable=0;whiteSpace=wrap;html=1;" parent="Mz9z7q-OG1JkgQbm7pyb-53" vertex="1">
          <mxGeometry y="60" width="240" height="30" as="geometry" />
        </mxCell>
        <mxCell id="Mz9z7q-OG1JkgQbm7pyb-56" value="+PieceType Type() {Return King}" style="text;strokeColor=none;fillColor=none;align=left;verticalAlign=middle;spacingLeft=4;spacingRight=4;overflow=hidden;points=[[0,0.5],[1,0.5]];portConstraint=eastwest;rotatable=0;whiteSpace=wrap;html=1;" parent="Mz9z7q-OG1JkgQbm7pyb-53" vertex="1">
          <mxGeometry y="90" width="240" height="30" as="geometry" />
        </mxCell>
        <mxCell id="Mz9z7q-OG1JkgQbm7pyb-57" value="+King(Position, Colour)" style="text;strokeColor=none;fillColor=none;align=left;verticalAlign=middle;spacingLeft=4;spacingRight=4;overflow=hidden;points=[[0,0.5],[1,0.5]];portConstraint=eastwest;rotatable=0;whiteSpace=wrap;html=1;" parent="Mz9z7q-OG1JkgQbm7pyb-53" vertex="1">
          <mxGeometry y="120" width="240" height="30" as="geometry" />
        </mxCell>
        <mxCell id="Mz9z7q-OG1JkgQbm7pyb-58" value="Queen" style="swimlane;fontStyle=0;childLayout=stackLayout;horizontal=1;startSize=30;horizontalStack=0;resizeParent=1;resizeParentMax=0;resizeLast=0;collapsible=1;marginBottom=0;whiteSpace=wrap;html=1;" parent="1" vertex="1">
          <mxGeometry x="1290" y="2000" width="240" height="150" as="geometry">
            <mxRectangle x="210" y="120" width="120" height="30" as="alternateBounds" />
          </mxGeometry>
        </mxCell>
        <mxCell id="Mz9z7q-OG1JkgQbm7pyb-59" value="+Position* ValidMoves()" style="text;strokeColor=none;fillColor=none;align=left;verticalAlign=middle;spacingLeft=4;spacingRight=4;overflow=hidden;points=[[0,0.5],[1,0.5]];portConstraint=eastwest;rotatable=0;whiteSpace=wrap;html=1;" parent="Mz9z7q-OG1JkgQbm7pyb-58" vertex="1">
          <mxGeometry y="30" width="240" height="30" as="geometry" />
        </mxCell>
        <mxCell id="Mz9z7q-OG1JkgQbm7pyb-60" value="+Bool verifyMove (Position)" style="text;strokeColor=none;fillColor=none;align=left;verticalAlign=middle;spacingLeft=4;spacingRight=4;overflow=hidden;points=[[0,0.5],[1,0.5]];portConstraint=eastwest;rotatable=0;whiteSpace=wrap;html=1;" parent="Mz9z7q-OG1JkgQbm7pyb-58" vertex="1">
          <mxGeometry y="60" width="240" height="30" as="geometry" />
        </mxCell>
        <mxCell id="Mz9z7q-OG1JkgQbm7pyb-61" value="+PieceType Type() {Return Queen}" style="text;strokeColor=none;fillColor=none;align=left;verticalAlign=middle;spacingLeft=4;spacingRight=4;overflow=hidden;points=[[0,0.5],[1,0.5]];portConstraint=eastwest;rotatable=0;whiteSpace=wrap;html=1;" parent="Mz9z7q-OG1JkgQbm7pyb-58" vertex="1">
          <mxGeometry y="90" width="240" height="30" as="geometry" />
        </mxCell>
        <mxCell id="Mz9z7q-OG1JkgQbm7pyb-62" value="+Queen(Position, Colour)" style="text;strokeColor=none;fillColor=none;align=left;verticalAlign=middle;spacingLeft=4;spacingRight=4;overflow=hidden;points=[[0,0.5],[1,0.5]];portConstraint=eastwest;rotatable=0;whiteSpace=wrap;html=1;" parent="Mz9z7q-OG1JkgQbm7pyb-58" vertex="1">
          <mxGeometry y="120" width="240" height="30" as="geometry" />
        </mxCell>
        <mxCell id="Mz9z7q-OG1JkgQbm7pyb-63" value="Pawn" style="swimlane;fontStyle=0;childLayout=stackLayout;horizontal=1;startSize=30;horizontalStack=0;resizeParent=1;resizeParentMax=0;resizeLast=0;collapsible=1;marginBottom=0;whiteSpace=wrap;html=1;" parent="1" vertex="1">
          <mxGeometry x="1570" y="2000" width="240" height="150" as="geometry">
            <mxRectangle x="210" y="120" width="120" height="30" as="alternateBounds" />
          </mxGeometry>
        </mxCell>
        <mxCell id="Mz9z7q-OG1JkgQbm7pyb-64" value="+Position* ValidMoves()" style="text;strokeColor=none;fillColor=none;align=left;verticalAlign=middle;spacingLeft=4;spacingRight=4;overflow=hidden;points=[[0,0.5],[1,0.5]];portConstraint=eastwest;rotatable=0;whiteSpace=wrap;html=1;" parent="Mz9z7q-OG1JkgQbm7pyb-63" vertex="1">
          <mxGeometry y="30" width="240" height="30" as="geometry" />
        </mxCell>
        <mxCell id="Mz9z7q-OG1JkgQbm7pyb-65" value="+Bool verifyMove (Position)" style="text;strokeColor=none;fillColor=none;align=left;verticalAlign=middle;spacingLeft=4;spacingRight=4;overflow=hidden;points=[[0,0.5],[1,0.5]];portConstraint=eastwest;rotatable=0;whiteSpace=wrap;html=1;" parent="Mz9z7q-OG1JkgQbm7pyb-63" vertex="1">
          <mxGeometry y="60" width="240" height="30" as="geometry" />
        </mxCell>
        <mxCell id="Mz9z7q-OG1JkgQbm7pyb-66" value="+PieceType Type() {Return Pawn}" style="text;strokeColor=none;fillColor=none;align=left;verticalAlign=middle;spacingLeft=4;spacingRight=4;overflow=hidden;points=[[0,0.5],[1,0.5]];portConstraint=eastwest;rotatable=0;whiteSpace=wrap;html=1;" parent="Mz9z7q-OG1JkgQbm7pyb-63" vertex="1">
          <mxGeometry y="90" width="240" height="30" as="geometry" />
        </mxCell>
        <mxCell id="Mz9z7q-OG1JkgQbm7pyb-67" value="+Pawn(Position, Colour)" style="text;strokeColor=none;fillColor=none;align=left;verticalAlign=middle;spacingLeft=4;spacingRight=4;overflow=hidden;points=[[0,0.5],[1,0.5]];portConstraint=eastwest;rotatable=0;whiteSpace=wrap;html=1;" parent="Mz9z7q-OG1JkgQbm7pyb-63" vertex="1">
          <mxGeometry y="120" width="240" height="30" as="geometry" />
        </mxCell>
        <mxCell id="Mz9z7q-OG1JkgQbm7pyb-70" value="" style="edgeStyle=elbowEdgeStyle;elbow=vertical;endArrow=block;html=1;curved=0;rounded=0;endSize=8;startSize=8;endFill=0;exitX=0.5;exitY=0;exitDx=0;exitDy=0;" parent="1" source="Mz9z7q-OG1JkgQbm7pyb-63" target="Mz9z7q-OG1JkgQbm7pyb-18" edge="1">
          <mxGeometry width="50" height="50" relative="1" as="geometry">
            <mxPoint x="1700" y="1970" as="sourcePoint" />
            <mxPoint x="990" y="1860" as="targetPoint" />
            <Array as="points">
              <mxPoint x="1340" y="1940" />
            </Array>
          </mxGeometry>
        </mxCell>
        <mxCell id="Mz9z7q-OG1JkgQbm7pyb-69" value="" style="edgeStyle=elbowEdgeStyle;elbow=vertical;endArrow=block;html=1;curved=0;rounded=0;endSize=8;startSize=8;endFill=0;exitX=0.5;exitY=0;exitDx=0;exitDy=0;" parent="1" source="Mz9z7q-OG1JkgQbm7pyb-58" target="Mz9z7q-OG1JkgQbm7pyb-18" edge="1">
          <mxGeometry width="50" height="50" relative="1" as="geometry">
            <mxPoint x="450" y="2220" as="sourcePoint" />
            <mxPoint x="450" y="2080" as="targetPoint" />
          </mxGeometry>
        </mxCell>
        <mxCell id="Mz9z7q-OG1JkgQbm7pyb-68" value="" style="edgeStyle=elbowEdgeStyle;elbow=vertical;endArrow=block;html=1;curved=0;rounded=0;endSize=8;startSize=8;exitX=0.5;exitY=0;exitDx=0;exitDy=0;endFill=0;" parent="1" source="Mz9z7q-OG1JkgQbm7pyb-53" target="Mz9z7q-OG1JkgQbm7pyb-18" edge="1">
          <mxGeometry width="50" height="50" relative="1" as="geometry">
            <mxPoint x="170" y="2220" as="sourcePoint" />
            <mxPoint x="990" y="1860" as="targetPoint" />
          </mxGeometry>
        </mxCell>
        <mxCell id="Mz9z7q-OG1JkgQbm7pyb-103" value="enum PieceType" style="swimlane;fontStyle=0;childLayout=stackLayout;horizontal=1;startSize=30;horizontalStack=0;resizeParent=1;resizeParentMax=0;resizeLast=0;collapsible=1;marginBottom=0;whiteSpace=wrap;html=1;" parent="1" vertex="1">
          <mxGeometry x="1310" y="1230" width="140" height="80" as="geometry" />
        </mxCell>
        <mxCell id="Mz9z7q-OG1JkgQbm7pyb-104" value="{King, Queen, Rook, Bishop, Knight, Pawn, None}" style="text;strokeColor=none;fillColor=none;align=left;verticalAlign=middle;spacingLeft=4;spacingRight=4;overflow=hidden;points=[[0,0.5],[1,0.5]];portConstraint=eastwest;rotatable=0;whiteSpace=wrap;html=1;" parent="Mz9z7q-OG1JkgQbm7pyb-103" vertex="1">
          <mxGeometry y="30" width="140" height="50" as="geometry" />
        </mxCell>
        <mxCell id="Mz9z7q-OG1JkgQbm7pyb-105" value="return" style="html=1;verticalAlign=bottom;endArrow=open;dashed=1;endSize=8;curved=0;rounded=0;entryX=1;entryY=0.5;entryDx=0;entryDy=0;" parent="1" target="Mz9z7q-OG1JkgQbm7pyb-106" edge="1">
          <mxGeometry x="-0.5385" y="-4" relative="1" as="geometry">
            <mxPoint x="1310" y="1250" as="sourcePoint" />
            <mxPoint x="1110" y="1252.9850746268655" as="targetPoint" />
            <mxPoint as="offset" />
          </mxGeometry>
        </mxCell>
        <mxCell id="Mz9z7q-OG1JkgQbm7pyb-108" value="Abstract UI" style="swimlane;fontStyle=0;childLayout=stackLayout;horizontal=1;startSize=26;fillColor=none;horizontalStack=0;resizeParent=1;resizeParentMax=0;resizeLast=0;collapsible=1;marginBottom=0;whiteSpace=wrap;html=1;" parent="1" vertex="1">
          <mxGeometry x="-10" y="550" width="280" height="78" as="geometry" />
        </mxCell>
        <mxCell id="Mz9z7q-OG1JkgQbm7pyb-110" value="# Board *const b" style="text;strokeColor=none;fillColor=none;align=left;verticalAlign=top;spacingLeft=4;spacingRight=4;overflow=hidden;rotatable=0;points=[[0,0.5],[1,0.5]];portConstraint=eastwest;whiteSpace=wrap;html=1;" parent="Mz9z7q-OG1JkgQbm7pyb-108" vertex="1">
          <mxGeometry y="26" width="280" height="26" as="geometry" />
        </mxCell>
        <mxCell id="Mz9z7q-OG1JkgQbm7pyb-111" value="+ Notify(Move_Info)" style="text;strokeColor=none;fillColor=none;align=left;verticalAlign=top;spacingLeft=4;spacingRight=4;overflow=hidden;rotatable=0;points=[[0,0.5],[1,0.5]];portConstraint=eastwest;whiteSpace=wrap;html=1;" parent="Mz9z7q-OG1JkgQbm7pyb-108" vertex="1">
          <mxGeometry y="52" width="280" height="26" as="geometry" />
        </mxCell>
        <mxCell id="zQiTS09YiXoC2l2YVAX9-2" value="Abstract BoardObserver" style="swimlane;fontStyle=0;childLayout=stackLayout;horizontal=1;startSize=26;fillColor=none;horizontalStack=0;resizeParent=1;resizeParentMax=0;resizeLast=0;collapsible=1;marginBottom=0;whiteSpace=wrap;html=1;" vertex="1" parent="1">
          <mxGeometry x="480" y="220" width="300" height="52" as="geometry" />
        </mxCell>
        <mxCell id="zQiTS09YiXoC2l2YVAX9-3" value="+ virtual Notify(Move_Info)&amp;nbsp;" style="text;strokeColor=none;fillColor=none;align=left;verticalAlign=top;spacingLeft=4;spacingRight=4;overflow=hidden;rotatable=0;points=[[0,0.5],[1,0.5]];portConstraint=eastwest;whiteSpace=wrap;html=1;" vertex="1" parent="zQiTS09YiXoC2l2YVAX9-2">
          <mxGeometry y="26" width="300" height="26" as="geometry" />
        </mxCell>
        <mxCell id="zQiTS09YiXoC2l2YVAX9-12" value="" style="edgeStyle=segmentEdgeStyle;endArrow=classic;html=1;curved=0;rounded=0;endSize=8;startSize=8;endFill=1;exitX=0;exitY=0;exitDx=0;exitDy=0;entryX=1;entryY=0.5;entryDx=0;entryDy=0;" edge="1" parent="1" source="Mz9z7q-OG1JkgQbm7pyb-71" target="Mz9z7q-OG1JkgQbm7pyb-110">
          <mxGeometry width="50" height="50" relative="1" as="geometry">
            <mxPoint x="540" y="930" as="sourcePoint" />
            <mxPoint x="540" y="590" as="targetPoint" />
            <Array as="points">
              <mxPoint x="540" y="920" />
              <mxPoint x="540" y="590" />
            </Array>
          </mxGeometry>
        </mxCell>
        <mxCell id="zQiTS09YiXoC2l2YVAX9-13" value="" style="edgeStyle=elbowEdgeStyle;elbow=vertical;endArrow=block;html=1;curved=0;rounded=0;endSize=8;startSize=8;exitX=0.5;exitY=0;exitDx=0;exitDy=0;endFill=0;" edge="1" parent="1" source="Mz9z7q-OG1JkgQbm7pyb-108" target="zQiTS09YiXoC2l2YVAX9-3">
          <mxGeometry width="50" height="50" relative="1" as="geometry">
            <mxPoint x="1465" y="550" as="sourcePoint" />
            <mxPoint x="630" y="298" as="targetPoint" />
          </mxGeometry>
        </mxCell>
        <mxCell id="zQiTS09YiXoC2l2YVAX9-17" value="Struct Position" style="swimlane;fontStyle=0;childLayout=stackLayout;horizontal=1;startSize=30;horizontalStack=0;resizeParent=1;resizeParentMax=0;resizeLast=0;collapsible=1;marginBottom=0;whiteSpace=wrap;html=1;" vertex="1" parent="1">
          <mxGeometry x="1540" y="1480" width="270" height="90" as="geometry">
            <mxRectangle x="210" y="120" width="120" height="30" as="alternateBounds" />
          </mxGeometry>
        </mxCell>
        <mxCell id="zQiTS09YiXoC2l2YVAX9-18" value="+ Int Rank, File" style="text;strokeColor=none;fillColor=none;align=left;verticalAlign=middle;spacingLeft=4;spacingRight=4;overflow=hidden;points=[[0,0.5],[1,0.5]];portConstraint=eastwest;rotatable=0;whiteSpace=wrap;html=1;" vertex="1" parent="zQiTS09YiXoC2l2YVAX9-17">
          <mxGeometry y="30" width="270" height="30" as="geometry" />
        </mxCell>
        <mxCell id="zQiTS09YiXoC2l2YVAX9-19" value="+ String Algebraic()" style="text;strokeColor=none;fillColor=none;align=left;verticalAlign=middle;spacingLeft=4;spacingRight=4;overflow=hidden;points=[[0,0.5],[1,0.5]];portConstraint=eastwest;rotatable=0;whiteSpace=wrap;html=1;" vertex="1" parent="zQiTS09YiXoC2l2YVAX9-17">
          <mxGeometry y="60" width="270" height="30" as="geometry" />
        </mxCell>
        <mxCell id="zQiTS09YiXoC2l2YVAX9-27" value="" style="edgeStyle=segmentEdgeStyle;endArrow=classic;html=1;curved=0;rounded=0;endSize=8;startSize=8;exitX=0;exitY=0.25;exitDx=0;exitDy=0;entryX=1;entryY=0.5;entryDx=0;entryDy=0;" edge="1" parent="1" source="zQiTS09YiXoC2l2YVAX9-17" target="Mz9z7q-OG1JkgQbm7pyb-2">
          <mxGeometry width="50" height="50" relative="1" as="geometry">
            <mxPoint x="1230" y="1490" as="sourcePoint" />
            <mxPoint x="1160" y="1630" as="targetPoint" />
            <Array as="points">
              <mxPoint x="1540" y="1635" />
            </Array>
          </mxGeometry>
        </mxCell>
        <mxCell id="zQiTS09YiXoC2l2YVAX9-28" value="Game_Data" style="swimlane;fontStyle=0;childLayout=stackLayout;horizontal=1;startSize=26;fillColor=none;horizontalStack=0;resizeParent=1;resizeParentMax=0;resizeLast=0;collapsible=1;marginBottom=0;whiteSpace=wrap;html=1;" vertex="1" parent="1">
          <mxGeometry x="890" y="550" width="300" height="142" as="geometry" />
        </mxCell>
        <mxCell id="zQiTS09YiXoC2l2YVAX9-29" value="- Vector&amp;lt;Move_Info&amp;gt; History" style="text;strokeColor=none;fillColor=none;align=left;verticalAlign=top;spacingLeft=4;spacingRight=4;overflow=hidden;rotatable=0;points=[[0,0.5],[1,0.5]];portConstraint=eastwest;whiteSpace=wrap;html=1;" vertex="1" parent="zQiTS09YiXoC2l2YVAX9-28">
          <mxGeometry y="26" width="300" height="26" as="geometry" />
        </mxCell>
        <mxCell id="zQiTS09YiXoC2l2YVAX9-30" value="+ Notify(Move_Info)" style="text;strokeColor=none;fillColor=none;align=left;verticalAlign=top;spacingLeft=4;spacingRight=4;overflow=hidden;rotatable=0;points=[[0,0.5],[1,0.5]];portConstraint=eastwest;whiteSpace=wrap;html=1;" vertex="1" parent="zQiTS09YiXoC2l2YVAX9-28">
          <mxGeometry y="52" width="300" height="26" as="geometry" />
        </mxCell>
        <mxCell id="zQiTS09YiXoC2l2YVAX9-31" value="+ Vector&amp;lt;Move_Info&amp;gt; Latest_moves(int = x)&amp;nbsp; //x tbd" style="text;strokeColor=none;fillColor=none;align=left;verticalAlign=top;spacingLeft=4;spacingRight=4;overflow=hidden;rotatable=0;points=[[0,0.5],[1,0.5]];portConstraint=eastwest;whiteSpace=wrap;html=1;" vertex="1" parent="zQiTS09YiXoC2l2YVAX9-28">
          <mxGeometry y="78" width="300" height="32" as="geometry" />
        </mxCell>
        <mxCell id="zQiTS09YiXoC2l2YVAX9-107" value="+ Int Move_Count()&amp;nbsp;" style="text;strokeColor=none;fillColor=none;align=left;verticalAlign=top;spacingLeft=4;spacingRight=4;overflow=hidden;rotatable=0;points=[[0,0.5],[1,0.5]];portConstraint=eastwest;whiteSpace=wrap;html=1;" vertex="1" parent="zQiTS09YiXoC2l2YVAX9-28">
          <mxGeometry y="110" width="300" height="32" as="geometry" />
        </mxCell>
        <mxCell id="zQiTS09YiXoC2l2YVAX9-38" value="" style="edgeStyle=elbowEdgeStyle;elbow=vertical;endArrow=block;html=1;curved=0;rounded=0;endSize=8;startSize=8;endFill=0;" edge="1" parent="1" source="zQiTS09YiXoC2l2YVAX9-28" target="zQiTS09YiXoC2l2YVAX9-3">
          <mxGeometry width="50" height="50" relative="1" as="geometry">
            <mxPoint x="660" y="638" as="sourcePoint" />
            <mxPoint x="1160" y="360" as="targetPoint" />
          </mxGeometry>
        </mxCell>
        <mxCell id="zQiTS09YiXoC2l2YVAX9-40" value="Move_Info" style="swimlane;fontStyle=0;childLayout=stackLayout;horizontal=1;startSize=26;fillColor=none;horizontalStack=0;resizeParent=1;resizeParentMax=0;resizeLast=0;collapsible=1;marginBottom=0;whiteSpace=wrap;html=1;" vertex="1" parent="1">
          <mxGeometry x="1315" y="520" width="280" height="130" as="geometry" />
        </mxCell>
        <mxCell id="zQiTS09YiXoC2l2YVAX9-41" value="+ const Piece *const moved_piece" style="text;strokeColor=none;fillColor=none;align=left;verticalAlign=top;spacingLeft=4;spacingRight=4;overflow=hidden;rotatable=0;points=[[0,0.5],[1,0.5]];portConstraint=eastwest;whiteSpace=wrap;html=1;" vertex="1" parent="zQiTS09YiXoC2l2YVAX9-40">
          <mxGeometry y="26" width="280" height="26" as="geometry" />
        </mxCell>
        <mxCell id="zQiTS09YiXoC2l2YVAX9-42" value="+ Position oldPos" style="text;strokeColor=none;fillColor=none;align=left;verticalAlign=top;spacingLeft=4;spacingRight=4;overflow=hidden;rotatable=0;points=[[0,0.5],[1,0.5]];portConstraint=eastwest;whiteSpace=wrap;html=1;" vertex="1" parent="zQiTS09YiXoC2l2YVAX9-40">
          <mxGeometry y="52" width="280" height="26" as="geometry" />
        </mxCell>
        <mxCell id="zQiTS09YiXoC2l2YVAX9-43" value="+ const Piece *const captured" style="text;strokeColor=none;fillColor=none;align=left;verticalAlign=top;spacingLeft=4;spacingRight=4;overflow=hidden;rotatable=0;points=[[0,0.5],[1,0.5]];portConstraint=eastwest;whiteSpace=wrap;html=1;" vertex="1" parent="zQiTS09YiXoC2l2YVAX9-40">
          <mxGeometry y="78" width="280" height="26" as="geometry" />
        </mxCell>
        <mxCell id="zQiTS09YiXoC2l2YVAX9-67" value="+ Invisible_Board_Info Info" style="text;strokeColor=none;fillColor=none;align=left;verticalAlign=top;spacingLeft=4;spacingRight=4;overflow=hidden;rotatable=0;points=[[0,0.5],[1,0.5]];portConstraint=eastwest;whiteSpace=wrap;html=1;" vertex="1" parent="zQiTS09YiXoC2l2YVAX9-40">
          <mxGeometry y="104" width="280" height="26" as="geometry" />
        </mxCell>
        <mxCell id="Mz9z7q-OG1JkgQbm7pyb-90" value="" style="edgeStyle=segmentEdgeStyle;endArrow=diamondThin;html=1;curved=0;rounded=0;endSize=8;startSize=8;endFill=1;entryX=1;entryY=0.5;entryDx=0;entryDy=0;" parent="1" target="Mz9z7q-OG1JkgQbm7pyb-72" edge="1">
          <mxGeometry width="50" height="50" relative="1" as="geometry">
            <mxPoint x="1110" y="1590" as="sourcePoint" />
            <mxPoint x="1160" y="1040" as="targetPoint" />
            <Array as="points">
              <mxPoint x="1160" y="965" />
            </Array>
          </mxGeometry>
        </mxCell>
        <mxCell id="zQiTS09YiXoC2l2YVAX9-52" value="" style="edgeStyle=segmentEdgeStyle;endArrow=diamondThin;html=1;curved=0;rounded=0;endSize=8;startSize=8;endFill=1;entryX=0;entryY=0.5;entryDx=0;entryDy=0;exitX=1;exitY=0;exitDx=0;exitDy=0;" edge="1" parent="1" source="Mz9z7q-OG1JkgQbm7pyb-1" target="zQiTS09YiXoC2l2YVAX9-41">
          <mxGeometry width="50" height="50" relative="1" as="geometry">
            <mxPoint x="1160" y="1610" as="sourcePoint" />
            <mxPoint x="1290" y="540" as="targetPoint" />
            <Array as="points">
              <mxPoint x="1290" y="1590" />
              <mxPoint x="1290" y="559" />
            </Array>
          </mxGeometry>
        </mxCell>
        <mxCell id="zQiTS09YiXoC2l2YVAX9-57" value="Invisible_Board_Info" style="swimlane;fontStyle=0;childLayout=stackLayout;horizontal=1;startSize=26;fillColor=none;horizontalStack=0;resizeParent=1;resizeParentMax=0;resizeLast=0;collapsible=1;marginBottom=0;whiteSpace=wrap;html=1;" vertex="1" parent="1">
          <mxGeometry x="1670" y="590" width="280" height="78" as="geometry" />
        </mxCell>
        <mxCell id="zQiTS09YiXoC2l2YVAX9-58" value="+ Boolean wkc, wqc, bkc, bqc" style="text;strokeColor=none;fillColor=none;align=left;verticalAlign=top;spacingLeft=4;spacingRight=4;overflow=hidden;rotatable=0;points=[[0,0.5],[1,0.5]];portConstraint=eastwest;whiteSpace=wrap;html=1;" vertex="1" parent="zQiTS09YiXoC2l2YVAX9-57">
          <mxGeometry y="26" width="280" height="26" as="geometry" />
        </mxCell>
        <mxCell id="zQiTS09YiXoC2l2YVAX9-59" value="+ int En_Passant_Column" style="text;strokeColor=none;fillColor=none;align=left;verticalAlign=top;spacingLeft=4;spacingRight=4;overflow=hidden;rotatable=0;points=[[0,0.5],[1,0.5]];portConstraint=eastwest;whiteSpace=wrap;html=1;" vertex="1" parent="zQiTS09YiXoC2l2YVAX9-57">
          <mxGeometry y="52" width="280" height="26" as="geometry" />
        </mxCell>
        <mxCell id="zQiTS09YiXoC2l2YVAX9-69" value="" style="edgeStyle=segmentEdgeStyle;endArrow=diamondThin;html=1;curved=0;rounded=0;endSize=8;startSize=8;entryX=1;entryY=0;entryDx=0;entryDy=0;exitX=1;exitY=0;exitDx=0;exitDy=0;endFill=1;" edge="1" parent="1" source="zQiTS09YiXoC2l2YVAX9-28">
          <mxGeometry width="50" height="50" relative="1" as="geometry">
            <mxPoint x="1250" y="980" as="sourcePoint" />
            <mxPoint x="1070" y="1120" as="targetPoint" />
            <Array as="points">
              <mxPoint x="1250" y="550" />
              <mxPoint x="1250" y="1120" />
            </Array>
          </mxGeometry>
        </mxCell>
        <mxCell id="zQiTS09YiXoC2l2YVAX9-70" value="Text_UI" style="swimlane;fontStyle=0;childLayout=stackLayout;horizontal=1;startSize=26;fillColor=none;horizontalStack=0;resizeParent=1;resizeParentMax=0;resizeLast=0;collapsible=1;marginBottom=0;whiteSpace=wrap;html=1;" vertex="1" parent="1">
          <mxGeometry x="-270" y="940" width="280" height="156" as="geometry" />
        </mxCell>
        <mxCell id="zQiTS09YiXoC2l2YVAX9-97" value="- Char[8][8] Board_Text" style="text;strokeColor=none;fillColor=none;align=left;verticalAlign=top;spacingLeft=4;spacingRight=4;overflow=hidden;rotatable=0;points=[[0,0.5],[1,0.5]];portConstraint=eastwest;whiteSpace=wrap;html=1;" vertex="1" parent="zQiTS09YiXoC2l2YVAX9-70">
          <mxGeometry y="26" width="280" height="26" as="geometry" />
        </mxCell>
        <mxCell id="zQiTS09YiXoC2l2YVAX9-98" value="- Char[n][8] History_Text&amp;nbsp;" style="text;strokeColor=none;fillColor=none;align=left;verticalAlign=top;spacingLeft=4;spacingRight=4;overflow=hidden;rotatable=0;points=[[0,0.5],[1,0.5]];portConstraint=eastwest;whiteSpace=wrap;html=1;" vertex="1" parent="zQiTS09YiXoC2l2YVAX9-70">
          <mxGeometry y="52" width="280" height="26" as="geometry" />
        </mxCell>
        <mxCell id="zQiTS09YiXoC2l2YVAX9-100" value="- Game_Data *History" style="text;strokeColor=none;fillColor=none;align=left;verticalAlign=top;spacingLeft=4;spacingRight=4;overflow=hidden;rotatable=0;points=[[0,0.5],[1,0.5]];portConstraint=eastwest;whiteSpace=wrap;html=1;" vertex="1" parent="zQiTS09YiXoC2l2YVAX9-70">
          <mxGeometry y="78" width="280" height="26" as="geometry" />
        </mxCell>
        <mxCell id="zQiTS09YiXoC2l2YVAX9-79" value="+ Notify(Board_Info) //prints to stdout" style="text;strokeColor=none;fillColor=none;align=left;verticalAlign=top;spacingLeft=4;spacingRight=4;overflow=hidden;rotatable=0;points=[[0,0.5],[1,0.5]];portConstraint=eastwest;whiteSpace=wrap;html=1;" vertex="1" parent="zQiTS09YiXoC2l2YVAX9-70">
          <mxGeometry y="104" width="280" height="26" as="geometry" />
        </mxCell>
        <mxCell id="zQiTS09YiXoC2l2YVAX9-99" value="+ Text_UI(Board*, Game_Data*)" style="text;strokeColor=none;fillColor=none;align=left;verticalAlign=top;spacingLeft=4;spacingRight=4;overflow=hidden;rotatable=0;points=[[0,0.5],[1,0.5]];portConstraint=eastwest;whiteSpace=wrap;html=1;" vertex="1" parent="zQiTS09YiXoC2l2YVAX9-70">
          <mxGeometry y="130" width="280" height="26" as="geometry" />
        </mxCell>
        <mxCell id="zQiTS09YiXoC2l2YVAX9-90" value="" style="edgeStyle=segmentEdgeStyle;endArrow=block;html=1;curved=0;rounded=0;endSize=8;startSize=8;exitX=0.5;exitY=0;exitDx=0;exitDy=0;endFill=0;" edge="1" parent="1" source="zQiTS09YiXoC2l2YVAX9-70" target="Mz9z7q-OG1JkgQbm7pyb-108">
          <mxGeometry width="50" height="50" relative="1" as="geometry">
            <mxPoint x="-140" y="940" as="sourcePoint" />
            <mxPoint x="-90" y="890" as="targetPoint" />
            <Array as="points">
              <mxPoint x="-130" y="890" />
              <mxPoint x="130" y="890" />
            </Array>
          </mxGeometry>
        </mxCell>
        <mxCell id="zQiTS09YiXoC2l2YVAX9-91" value="" style="edgeStyle=segmentEdgeStyle;endArrow=block;html=1;curved=0;rounded=0;endSize=8;startSize=8;exitX=0.5;exitY=0;exitDx=0;exitDy=0;endFill=0;" edge="1" parent="1" source="zQiTS09YiXoC2l2YVAX9-93" target="Mz9z7q-OG1JkgQbm7pyb-108">
          <mxGeometry width="50" height="50" relative="1" as="geometry">
            <mxPoint x="360" y="940" as="sourcePoint" />
            <mxPoint x="350" y="910" as="targetPoint" />
            <Array as="points">
              <mxPoint x="370" y="890" />
              <mxPoint x="130" y="890" />
            </Array>
          </mxGeometry>
        </mxCell>
        <mxCell id="zQiTS09YiXoC2l2YVAX9-93" value="GUI" style="swimlane;fontStyle=0;childLayout=stackLayout;horizontal=1;startSize=26;fillColor=none;horizontalStack=0;resizeParent=1;resizeParentMax=0;resizeLast=0;collapsible=1;marginBottom=0;whiteSpace=wrap;html=1;" vertex="1" parent="1">
          <mxGeometry x="210" y="940" width="320" height="182" as="geometry" />
        </mxCell>
        <mxCell id="zQiTS09YiXoC2l2YVAX9-101" value="- Pixmap GUI_Image" style="text;strokeColor=none;fillColor=none;align=left;verticalAlign=top;spacingLeft=4;spacingRight=4;overflow=hidden;rotatable=0;points=[[0,0.5],[1,0.5]];portConstraint=eastwest;whiteSpace=wrap;html=1;" vertex="1" parent="zQiTS09YiXoC2l2YVAX9-93">
          <mxGeometry y="26" width="320" height="26" as="geometry" />
        </mxCell>
        <mxCell id="zQiTS09YiXoC2l2YVAX9-106" value="- Display *display" style="text;strokeColor=none;fillColor=none;align=left;verticalAlign=top;spacingLeft=4;spacingRight=4;overflow=hidden;rotatable=0;points=[[0,0.5],[1,0.5]];portConstraint=eastwest;whiteSpace=wrap;html=1;" vertex="1" parent="zQiTS09YiXoC2l2YVAX9-93">
          <mxGeometry y="52" width="320" height="26" as="geometry" />
        </mxCell>
        <mxCell id="zQiTS09YiXoC2l2YVAX9-103" value="- Game_Data *History" style="text;strokeColor=none;fillColor=none;align=left;verticalAlign=top;spacingLeft=4;spacingRight=4;overflow=hidden;rotatable=0;points=[[0,0.5],[1,0.5]];portConstraint=eastwest;whiteSpace=wrap;html=1;" vertex="1" parent="zQiTS09YiXoC2l2YVAX9-93">
          <mxGeometry y="78" width="320" height="26" as="geometry" />
        </mxCell>
        <mxCell id="zQiTS09YiXoC2l2YVAX9-104" value="+ Notify(Board_Info) //updates GUI_Image and display" style="text;strokeColor=none;fillColor=none;align=left;verticalAlign=top;spacingLeft=4;spacingRight=4;overflow=hidden;rotatable=0;points=[[0,0.5],[1,0.5]];portConstraint=eastwest;whiteSpace=wrap;html=1;" vertex="1" parent="zQiTS09YiXoC2l2YVAX9-93">
          <mxGeometry y="104" width="320" height="26" as="geometry" />
        </mxCell>
        <mxCell id="zQiTS09YiXoC2l2YVAX9-105" value="+ GUI(Display *Board*, Game_Data*)" style="text;strokeColor=none;fillColor=none;align=left;verticalAlign=top;spacingLeft=4;spacingRight=4;overflow=hidden;rotatable=0;points=[[0,0.5],[1,0.5]];portConstraint=eastwest;whiteSpace=wrap;html=1;" vertex="1" parent="zQiTS09YiXoC2l2YVAX9-93">
          <mxGeometry y="130" width="320" height="26" as="geometry" />
        </mxCell>
        <mxCell id="zQiTS09YiXoC2l2YVAX9-102" value="- Char[n][8] History_Text&amp;nbsp;" style="text;strokeColor=none;fillColor=none;align=left;verticalAlign=top;spacingLeft=4;spacingRight=4;overflow=hidden;rotatable=0;points=[[0,0.5],[1,0.5]];portConstraint=eastwest;whiteSpace=wrap;html=1;" vertex="1" parent="zQiTS09YiXoC2l2YVAX9-93">
          <mxGeometry y="156" width="320" height="26" as="geometry" />
        </mxCell>
        <mxCell id="zQiTS09YiXoC2l2YVAX9-108" value="" style="edgeStyle=segmentEdgeStyle;endArrow=classic;html=1;curved=0;rounded=0;endSize=8;startSize=8;exitX=0;exitY=0;exitDx=0;exitDy=0;" edge="1" parent="1" source="zQiTS09YiXoC2l2YVAX9-28">
          <mxGeometry width="50" height="50" relative="1" as="geometry">
            <mxPoint x="710" y="660" as="sourcePoint" />
            <mxPoint x="530" y="1030" as="targetPoint" />
            <Array as="points">
              <mxPoint x="670" y="550" />
              <mxPoint x="670" y="1031" />
            </Array>
          </mxGeometry>
        </mxCell>
        <mxCell id="zQiTS09YiXoC2l2YVAX9-109" value="" style="edgeStyle=segmentEdgeStyle;endArrow=classic;html=1;curved=0;rounded=0;endSize=8;startSize=8;exitX=0;exitY=0;exitDx=0;exitDy=0;entryX=1;entryY=0.5;entryDx=0;entryDy=0;" edge="1" parent="1" target="zQiTS09YiXoC2l2YVAX9-100">
          <mxGeometry width="50" height="50" relative="1" as="geometry">
            <mxPoint x="890" y="550" as="sourcePoint" />
            <mxPoint x="70" y="1000" as="targetPoint" />
            <Array as="points">
              <mxPoint x="670" y="550" />
              <mxPoint x="670" y="790" />
              <mxPoint x="170" y="790" />
              <mxPoint x="170" y="1031" />
            </Array>
          </mxGeometry>
        </mxCell>
        <mxCell id="zQiTS09YiXoC2l2YVAX9-111" value="" style="edgeStyle=segmentEdgeStyle;endArrow=classic;html=1;curved=0;rounded=0;endSize=8;startSize=8;entryX=1;entryY=0.5;entryDx=0;entryDy=0;exitX=0;exitY=0;exitDx=0;exitDy=0;" edge="1" parent="1" source="zQiTS09YiXoC2l2YVAX9-57" target="zQiTS09YiXoC2l2YVAX9-67">
          <mxGeometry width="50" height="50" relative="1" as="geometry">
            <mxPoint x="1640" y="670" as="sourcePoint" />
            <mxPoint x="1650" y="650" as="targetPoint" />
            <Array as="points">
              <mxPoint x="1620" y="590" />
              <mxPoint x="1620" y="637" />
            </Array>
          </mxGeometry>
        </mxCell>
        <mxCell id="zQiTS09YiXoC2l2YVAX9-112" value="" style="edgeStyle=segmentEdgeStyle;endArrow=classic;html=1;curved=0;rounded=0;endSize=8;startSize=8;entryX=1;entryY=0.5;entryDx=0;entryDy=0;exitX=0;exitY=0;exitDx=0;exitDy=0;" edge="1" parent="1" source="zQiTS09YiXoC2l2YVAX9-40" target="zQiTS09YiXoC2l2YVAX9-29">
          <mxGeometry width="50" height="50" relative="1" as="geometry">
            <mxPoint x="1310" y="530" as="sourcePoint" />
            <mxPoint x="1260" y="567" as="targetPoint" />
            <Array as="points">
              <mxPoint x="1270" y="520" />
              <mxPoint x="1270" y="589" />
            </Array>
          </mxGeometry>
        </mxCell>
        <mxCell id="zQiTS09YiXoC2l2YVAX9-113" value="Abstract Bot" style="swimlane;fontStyle=0;childLayout=stackLayout;horizontal=1;startSize=26;fillColor=none;horizontalStack=0;resizeParent=1;resizeParentMax=0;resizeLast=0;collapsible=1;marginBottom=0;whiteSpace=wrap;html=1;" vertex="1" parent="1">
          <mxGeometry x="2420" y="620" width="300" height="82" as="geometry" />
        </mxCell>
        <mxCell id="zQiTS09YiXoC2l2YVAX9-114" value="# Board *b" style="text;strokeColor=none;fillColor=none;align=left;verticalAlign=top;spacingLeft=4;spacingRight=4;overflow=hidden;rotatable=0;points=[[0,0.5],[1,0.5]];portConstraint=eastwest;whiteSpace=wrap;html=1;" vertex="1" parent="zQiTS09YiXoC2l2YVAX9-113">
          <mxGeometry y="26" width="300" height="24" as="geometry" />
        </mxCell>
        <mxCell id="zQiTS09YiXoC2l2YVAX9-117" value="+ virtual Move_Info Choose_Move()" style="text;strokeColor=none;fillColor=none;align=left;verticalAlign=top;spacingLeft=4;spacingRight=4;overflow=hidden;rotatable=0;points=[[0,0.5],[1,0.5]];portConstraint=eastwest;whiteSpace=wrap;html=1;" vertex="1" parent="zQiTS09YiXoC2l2YVAX9-113">
          <mxGeometry y="50" width="300" height="32" as="geometry" />
        </mxCell>
        <mxCell id="zQiTS09YiXoC2l2YVAX9-120" value="Bot_Lvl1" style="swimlane;fontStyle=0;childLayout=stackLayout;horizontal=1;startSize=26;fillColor=none;horizontalStack=0;resizeParent=1;resizeParentMax=0;resizeLast=0;collapsible=1;marginBottom=0;whiteSpace=wrap;html=1;" vertex="1" parent="1">
          <mxGeometry x="2190" y="790" width="300" height="58" as="geometry" />
        </mxCell>
        <mxCell id="zQiTS09YiXoC2l2YVAX9-122" value="+ Move_Info Choose_Move()" style="text;strokeColor=none;fillColor=none;align=left;verticalAlign=top;spacingLeft=4;spacingRight=4;overflow=hidden;rotatable=0;points=[[0,0.5],[1,0.5]];portConstraint=eastwest;whiteSpace=wrap;html=1;" vertex="1" parent="zQiTS09YiXoC2l2YVAX9-120">
          <mxGeometry y="26" width="300" height="32" as="geometry" />
        </mxCell>
        <mxCell id="zQiTS09YiXoC2l2YVAX9-127" value="Abstract Depth_First_Bot" style="swimlane;fontStyle=0;childLayout=stackLayout;horizontal=1;startSize=26;fillColor=none;horizontalStack=0;resizeParent=1;resizeParentMax=0;resizeLast=0;collapsible=1;marginBottom=0;whiteSpace=wrap;html=1;" vertex="1" parent="1">
          <mxGeometry x="2700" y="780" width="300" height="58" as="geometry" />
        </mxCell>
        <mxCell id="zQiTS09YiXoC2l2YVAX9-128" value="#&amp;nbsp;" style="text;strokeColor=none;fillColor=none;align=left;verticalAlign=top;spacingLeft=4;spacingRight=4;overflow=hidden;rotatable=0;points=[[0,0.5],[1,0.5]];portConstraint=eastwest;whiteSpace=wrap;html=1;" vertex="1" parent="zQiTS09YiXoC2l2YVAX9-127">
          <mxGeometry y="26" width="300" height="32" as="geometry" />
        </mxCell>
        <mxCell id="zQiTS09YiXoC2l2YVAX9-133" value="Minmax_Tree" style="swimlane;fontStyle=0;childLayout=stackLayout;horizontal=1;startSize=26;fillColor=none;horizontalStack=0;resizeParent=1;resizeParentMax=0;resizeLast=0;collapsible=1;marginBottom=0;whiteSpace=wrap;html=1;" vertex="1" parent="1">
          <mxGeometry x="3150" y="780" width="300" height="122" as="geometry" />
        </mxCell>
        <mxCell id="zQiTS09YiXoC2l2YVAX9-134" value="-Std::Queue End_Nodes" style="text;strokeColor=none;fillColor=none;align=left;verticalAlign=top;spacingLeft=4;spacingRight=4;overflow=hidden;rotatable=0;points=[[0,0.5],[1,0.5]];portConstraint=eastwest;whiteSpace=wrap;html=1;" vertex="1" parent="zQiTS09YiXoC2l2YVAX9-133">
          <mxGeometry y="26" width="300" height="32" as="geometry" />
        </mxCell>
        <mxCell id="zQiTS09YiXoC2l2YVAX9-135" value="-Minmax_Tree_Node *Top" style="text;strokeColor=none;fillColor=none;align=left;verticalAlign=top;spacingLeft=4;spacingRight=4;overflow=hidden;rotatable=0;points=[[0,0.5],[1,0.5]];portConstraint=eastwest;whiteSpace=wrap;html=1;" vertex="1" parent="zQiTS09YiXoC2l2YVAX9-133">
          <mxGeometry y="58" width="300" height="32" as="geometry" />
        </mxCell>
        <mxCell id="zQiTS09YiXoC2l2YVAX9-141" value="-Depth_First_Bot *Centipawn_Refrence" style="text;strokeColor=none;fillColor=none;align=left;verticalAlign=top;spacingLeft=4;spacingRight=4;overflow=hidden;rotatable=0;points=[[0,0.5],[1,0.5]];portConstraint=eastwest;whiteSpace=wrap;html=1;" vertex="1" parent="zQiTS09YiXoC2l2YVAX9-133">
          <mxGeometry y="90" width="300" height="32" as="geometry" />
        </mxCell>
        <mxCell id="zQiTS09YiXoC2l2YVAX9-136" value="Minmax_Tree_Node" style="swimlane;fontStyle=0;childLayout=stackLayout;horizontal=1;startSize=26;fillColor=none;horizontalStack=0;resizeParent=1;resizeParentMax=0;resizeLast=0;collapsible=1;marginBottom=0;whiteSpace=wrap;html=1;" vertex="1" parent="1">
          <mxGeometry x="3560" y="790" width="300" height="122" as="geometry" />
        </mxCell>
        <mxCell id="zQiTS09YiXoC2l2YVAX9-137" value="+move Previous" style="text;strokeColor=none;fillColor=none;align=left;verticalAlign=top;spacingLeft=4;spacingRight=4;overflow=hidden;rotatable=0;points=[[0,0.5],[1,0.5]];portConstraint=eastwest;whiteSpace=wrap;html=1;" vertex="1" parent="zQiTS09YiXoC2l2YVAX9-136">
          <mxGeometry y="26" width="300" height="32" as="geometry" />
        </mxCell>
        <mxCell id="zQiTS09YiXoC2l2YVAX9-138" value="+int Valuation" style="text;strokeColor=none;fillColor=none;align=left;verticalAlign=top;spacingLeft=4;spacingRight=4;overflow=hidden;rotatable=0;points=[[0,0.5],[1,0.5]];portConstraint=eastwest;whiteSpace=wrap;html=1;" vertex="1" parent="zQiTS09YiXoC2l2YVAX9-136">
          <mxGeometry y="58" width="300" height="32" as="geometry" />
        </mxCell>
        <mxCell id="zQiTS09YiXoC2l2YVAX9-139" value="+Minmax_Tree_Node *parent" style="text;strokeColor=none;fillColor=none;align=left;verticalAlign=top;spacingLeft=4;spacingRight=4;overflow=hidden;rotatable=0;points=[[0,0.5],[1,0.5]];portConstraint=eastwest;whiteSpace=wrap;html=1;" vertex="1" parent="zQiTS09YiXoC2l2YVAX9-136">
          <mxGeometry y="90" width="300" height="32" as="geometry" />
        </mxCell>
      </root>
    </mxGraphModel>
  </diagram>
</mxfile>
